<?xml version="1.0" standalone="no"?>
<!DOCTYPE svg PUBLIC "-//W3C//DTD SVG 20010904//EN"
 "http://www.w3.org/TR/2001/REC-SVG-20010904/DTD/svg10.dtd">
<svg version="1.0" xmlns="http://www.w3.org/2000/svg"
 width="260.000000pt" height="260.000000pt" viewBox="0 0 260.000000 260.000000"
 preserveAspectRatio="xMidYMid meet">
<metadata>
Created by potrace 1.14, written by Peter Selinger 2001-2017
</metadata>
<g transform="translate(0.000000,260.000000) scale(0.100000,-0.100000)"
fill="#000000" stroke="none">
<path d="M0 1300 l0 -1300 1300 0 1300 0 0 1300 0 1300 -1300 0 -1300 0 0
-1300z m1337 1239 c25 -24 67 -98 145 -259 182 -372 215 -451 372 -861 38 -99
63 -133 107 -144 14 -3 94 3 177 15 169 25 208 22 253 -18 41 -37 48 -86 17
-131 -33 -49 -80 -69 -214 -92 -144 -24 -168 -37 -161 -84 3 -18 62 -176 132
-350 132 -333 149 -386 134 -441 -20 -69 -114 -99 -172 -54 -43 34 -63 77
-213 452 -118 297 -150 368 -176 392 l-31 29 -196 -8 c-108 -5 -305 -9 -438
-9 -241 -1 -241 -1 -267 -25 -24 -23 -150 -306 -244 -549 -41 -106 -110 -222
-146 -247 -11 -8 -38 -15 -59 -15 -50 0 -97 43 -97 90 0 69 64 258 183 540 36
86 68 167 72 181 11 44 -17 57 -147 68 -64 5 -132 16 -150 24 -77 32 -102 117
-52 176 38 46 77 52 270 45 l170 -7 31 29 c36 34 34 29 168 414 132 378 270
743 301 796 35 62 77 86 142 81 43 -3 59 -10 89 -38z"/>
<path d="M1232 2115 c-24 -30 -79 -169 -157 -395 -30 -85 -74 -213 -99 -285
-50 -141 -55 -175 -29 -196 35 -30 612 -15 660 16 33 22 30 38 -61 271 -113
290 -240 567 -275 598 -18 16 -20 16 -39 -9z"/>
</g>
</svg>
